<svg width="48" height="48" viewBox="0 0 48 48" fill="none" xmlns="http://www.w3.org/2000/svg">
<path d="M37.4114 26.2696C37.4114 29.7282 34.6076 32.532 31.149 32.532C27.6905 32.532 24.8867 29.7282 24.8867 26.2696C24.8867 22.8111 27.6905 20.0073 31.149 20.0073C34.6076 20.0073 37.4114 22.8111 37.4114 26.2696Z" fill="#007DBA"/>
<path d="M37.086 36.2728C37.086 36.7219 34.3551 37.086 30.9864 37.086C27.6176 37.086 24.8867 36.7219 24.8867 36.2728C24.8867 35.8236 27.6176 35.4595 30.9864 35.4595C34.3551 35.4595 37.086 35.8236 37.086 36.2728Z" fill="#CCE4F0"/>
<path opacity="0.2" d="M0.488037 13.6636C11.8741 13.6636 14.341 28.0859 14.1513 35.297C15.2473 25.7981 20.798 22.395 25.5373 24.0346" stroke="#0079B6" stroke-width="1.1386"/>
</svg>
