<svg width="24" height="24" viewBox="0 0 24 24" fill="none" xmlns="http://www.w3.org/2000/svg">
<path d="M17 15C17 17.7614 14.7614 20 12 20C9.23858 20 7 17.7614 7 15C7 12.2386 9.23858 10 12 10C14.7614 10 17 12.2386 17 15Z" stroke="#282828" stroke-width="2"/>
<path d="M16.9001 9C16.4368 6.71776 14.419 5 12.0001 5C9.58112 5 7.56337 6.71776 7.1001 9" stroke="#282828" stroke-width="1.5" stroke-linecap="round"/>
<path d="M16.0002 3C15.088 1.78555 13.6357 1 11.9999 1C10.3641 1 8.91172 1.78555 7.99951 3" stroke="#282828" stroke-linecap="round"/>
<path d="M19 22.5C19 22.7761 15.866 23 12 23C8.13401 23 5 22.7761 5 22.5C5 22.2239 8.13401 22 12 22C15.866 22 19 22.2239 19 22.5Z" fill="#282828"/>
</svg>
